<svg width="84" height="36" viewBox="0 0 84 36" fill="none" xmlns="http://www.w3.org/2000/svg">
<g clip-path="url(#clip0_212_400)">
<rect y="4" width="84" height="28" fill="white"/>
<path d="M19.4832 17.2031V18.5635H14.199V17.2031H19.4832ZM14.6229 13.0469V23H12.907V13.0469H14.6229ZM20.8025 13.0469V23H19.0936V13.0469H20.8025ZM22.9465 13.0469H26.467C27.2235 13.0469 27.8684 13.1608 28.4016 13.3887C28.9348 13.6165 29.3426 13.9538 29.6252 14.4004C29.9123 14.8424 30.0559 15.3893 30.0559 16.041C30.0559 16.5378 29.9647 16.9753 29.7824 17.3535C29.6001 17.7318 29.3426 18.0508 29.01 18.3105C28.6773 18.5658 28.2808 18.764 27.8205 18.9053L27.301 19.1582H24.1359L24.1223 17.7979H26.4943C26.9045 17.7979 27.2463 17.7249 27.5197 17.5791C27.7932 17.4333 27.9982 17.235 28.135 16.9844C28.2762 16.7292 28.3469 16.4421 28.3469 16.123C28.3469 15.7767 28.2785 15.4759 28.1418 15.2207C28.0096 14.9609 27.8046 14.7627 27.5266 14.626C27.2486 14.4847 26.8954 14.4141 26.467 14.4141H24.6623V23H22.9465V13.0469ZM28.6271 23L26.2893 18.5293L28.0871 18.5225L30.4592 22.9111V23H28.6271ZM42.0273 17.2031V18.5635H36.7432V17.2031H42.0273ZM37.167 13.0469V23H35.4512V13.0469H37.167ZM43.3467 13.0469V23H41.6377V13.0469H43.3467ZM51.0756 13.0469H52.7846V19.6982C52.7846 20.4548 52.6205 21.0882 52.2924 21.5986C51.9643 22.109 51.5176 22.4941 50.9525 22.7539C50.392 23.0091 49.7654 23.1367 49.0727 23.1367C48.3572 23.1367 47.7191 23.0091 47.1586 22.7539C46.598 22.4941 46.156 22.109 45.8324 21.5986C45.5134 21.0882 45.3539 20.4548 45.3539 19.6982V13.0469H47.0629V19.6982C47.0629 20.1768 47.1449 20.571 47.309 20.8809C47.473 21.1862 47.7055 21.4118 48.0063 21.5576C48.307 21.7035 48.6625 21.7764 49.0727 21.7764C49.4828 21.7764 49.836 21.7035 50.1322 21.5576C50.433 21.4118 50.6654 21.1862 50.8295 20.8809C50.9936 20.571 51.0756 20.1768 51.0756 19.6982V13.0469ZM62.6463 13.0469V23H60.9305L56.4666 15.8701V23H54.7508V13.0469H56.4666L60.9441 20.1904V13.0469H62.6463ZM68.6799 13.0469V23H66.9777V13.0469H68.6799ZM71.8039 13.0469V14.4141H63.8811V13.0469H71.8039Z" fill="#1D192B"/>
</g>
<rect x="0.5" y="4.5" width="83" height="27" stroke="#FEF7FF"/>
<defs>
<clipPath id="clip0_212_400">
<rect y="4" width="84" height="28" fill="white"/>
</clipPath>
</defs>
</svg>
