<svg width="20" height="20" viewBox="0 0 20 20" fill="none" xmlns="http://www.w3.org/2000/svg">
<ellipse cx="10" cy="13.7498" rx="5" ry="2.08333" stroke="#E25319" stroke-width="1.5" stroke-linejoin="round"/>
<ellipse cx="10" cy="6.6665" rx="2.5" ry="2.5" stroke="#E25319" stroke-width="1.5" stroke-linejoin="round"/>
<path fill-rule="evenodd" clip-rule="evenodd" d="M5.6288 10.9185C4.48481 10.9391 3.42291 11.1326 2.60847 11.4584C2.17917 11.6301 1.78142 11.8534 1.47873 12.1396C1.17446 12.4274 0.916626 12.8305 0.916626 13.3333C0.916626 13.8361 1.17446 14.2392 1.47873 14.5269C1.78142 14.8132 2.17917 15.0364 2.60847 15.2081C3.07808 15.396 3.62997 15.5399 4.23243 15.632C3.6969 15.1138 3.37573 14.5169 3.33721 13.8797C3.27789 13.8589 3.22064 13.8375 3.16556 13.8154C2.84084 13.6855 2.6284 13.5496 2.50939 13.4371C2.45646 13.387 2.4324 13.3524 2.42194 13.3333C2.4324 13.3142 2.45646 13.2795 2.50939 13.2295C2.6284 13.1169 2.84084 12.981 3.16556 12.8511C3.2971 12.7985 3.44101 12.7493 3.59593 12.7043C3.95752 12.0024 4.67395 11.3853 5.6288 10.9185ZM2.4145 13.3508C2.41437 13.3508 2.41461 13.3494 2.41562 13.3467C2.41513 13.3494 2.41463 13.3508 2.4145 13.3508ZM2.41562 13.3199C2.41461 13.3172 2.41437 13.3158 2.4145 13.3158C2.41463 13.3158 2.41513 13.3172 2.41562 13.3199Z" fill="#E25319"/>
<path fill-rule="evenodd" clip-rule="evenodd" d="M16.6628 13.8797C16.6243 14.5169 16.3031 15.1138 15.7676 15.632C16.37 15.5399 16.9219 15.396 17.3915 15.2081C17.8208 15.0364 18.2186 14.8132 18.5213 14.5269C18.8256 14.2392 19.0834 13.8361 19.0834 13.3333C19.0834 12.8305 18.8256 12.4274 18.5213 12.1396C18.2186 11.8534 17.8208 11.6301 17.3915 11.4584C16.5771 11.1326 15.5152 10.9391 14.3712 10.9185C15.3261 11.3853 16.0425 12.0024 16.4041 12.7043C16.559 12.7493 16.7029 12.7985 16.8345 12.8511C17.1592 12.981 17.3716 13.1169 17.4906 13.2295C17.5436 13.2795 17.5676 13.3142 17.5781 13.3333C17.5676 13.3524 17.5436 13.387 17.4906 13.4371C17.3716 13.5496 17.1592 13.6855 16.8345 13.8154C16.7794 13.8375 16.7221 13.8589 16.6628 13.8797ZM17.5855 13.3508C17.5854 13.3508 17.5849 13.3494 17.5844 13.3467C17.5854 13.3494 17.5856 13.3508 17.5855 13.3508ZM17.5844 13.3199C17.5849 13.3172 17.5854 13.3158 17.5855 13.3158C17.5856 13.3158 17.5854 13.3172 17.5844 13.3199Z" fill="#E25319"/>
<path fill-rule="evenodd" clip-rule="evenodd" d="M13.8142 8.34662C13.6078 8.81463 13.3177 9.23748 12.963 9.59624C13.3174 9.80018 13.7284 9.91683 14.1666 9.91683C15.5013 9.91683 16.5833 8.83485 16.5833 7.50016C16.5833 6.16547 15.5013 5.0835 14.1666 5.0835C14.0638 5.0835 13.9624 5.08992 13.863 5.10239C14.0489 5.56113 14.1556 6.0605 14.1658 6.5835C14.1661 6.5835 14.1664 6.5835 14.1666 6.5835C14.6729 6.5835 15.0833 6.9939 15.0833 7.50016C15.0833 8.00642 14.6729 8.41683 14.1666 8.41683C14.0417 8.41683 13.9227 8.39185 13.8142 8.34662Z" fill="#E25319"/>
<path fill-rule="evenodd" clip-rule="evenodd" d="M6.13695 5.10239C6.03749 5.08992 5.93614 5.0835 5.83329 5.0835C4.4986 5.0835 3.41663 6.16547 3.41663 7.50016C3.41663 8.83485 4.4986 9.91683 5.83329 9.91683C6.27153 9.91683 6.68252 9.80018 7.03691 9.59624C6.6822 9.23748 6.39217 8.81463 6.18576 8.34662C6.07725 8.39185 5.95819 8.41683 5.83329 8.41683C5.32703 8.41683 4.91663 8.00642 4.91663 7.50016C4.91663 6.9939 5.32703 6.5835 5.83329 6.5835C5.83357 6.5835 5.83384 6.5835 5.83411 6.5835C5.84437 6.0605 5.95099 5.56113 6.13695 5.10239Z" fill="#E25319"/>
</svg>
