<svg width="24" height="24" viewBox="0 0 24 24" fill="none" xmlns="http://www.w3.org/2000/svg">
<path fill-rule="evenodd" clip-rule="evenodd" d="M16.2812 0.75C16.6955 0.75 17.0312 1.08579 17.0312 1.5V3H17.2812C19.4904 3 21.2812 4.79086 21.2812 7V17.5C21.2812 19.7091 19.4904 21.5 17.2812 21.5H7.28125C5.07211 21.5 3.28125 19.7091 3.28125 17.5V7C3.28125 4.79086 5.07211 3 7.28125 3H7.53125V1.5C7.53125 1.08579 7.86704 0.75 8.28125 0.75C8.69546 0.75 9.03125 1.08579 9.03125 1.5V3H15.5312V1.5C15.5312 1.08579 15.867 0.75 16.2812 0.75ZM18.0312 12.5C18.0312 12.9142 17.6955 13.25 17.2812 13.25H11.2812C10.867 13.25 10.5312 12.9142 10.5312 12.5C10.5312 12.0858 10.867 11.75 11.2812 11.75H17.2812C17.6955 11.75 18.0312 12.0858 18.0312 12.5ZM17.2812 9.25C17.6955 9.25 18.0312 8.91421 18.0312 8.5C18.0312 8.08579 17.6955 7.75 17.2812 7.75H11.2812C10.867 7.75 10.5312 8.08579 10.5312 8.5C10.5312 8.91421 10.867 9.25 11.2812 9.25H17.2812ZM18.0312 16.5C18.0312 16.9142 17.6955 17.25 17.2812 17.25H11.2812C10.867 17.25 10.5312 16.9142 10.5312 16.5C10.5312 16.0858 10.867 15.75 11.2812 15.75H17.2812C17.6955 15.75 18.0312 16.0858 18.0312 16.5ZM8.78125 8.5C8.78125 9.05228 8.33353 9.5 7.78125 9.5C7.22897 9.5 6.78125 9.05228 6.78125 8.5C6.78125 7.94772 7.22897 7.5 7.78125 7.5C8.33353 7.5 8.78125 7.94772 8.78125 8.5ZM7.78125 13.5C8.33353 13.5 8.78125 13.0523 8.78125 12.5C8.78125 11.9477 8.33353 11.5 7.78125 11.5C7.22897 11.5 6.78125 11.9477 6.78125 12.5C6.78125 13.0523 7.22897 13.5 7.78125 13.5ZM8.78125 16.5C8.78125 17.0523 8.33353 17.5 7.78125 17.5C7.22897 17.5 6.78125 17.0523 6.78125 16.5C6.78125 15.9477 7.22897 15.5 7.78125 15.5C8.33353 15.5 8.78125 15.9477 8.78125 16.5Z" fill="#E25319"/>
</svg>
